<svg id="visual" viewBox="0 0 1920 1080" width="1920" height="1080" xmlns="http://www.w3.org/2000/svg" xmlns:xlink="http://www.w3.org/1999/xlink" version="1.1"><path d="M0 694L45.7 717.7C91.3 741.3 182.7 788.7 274.2 807.2C365.7 825.7 457.3 815.3 548.8 813.7C640.3 812 731.7 819 823 818.2C914.3 817.3 1005.7 808.7 1097 798.7C1188.3 788.7 1279.7 777.3 1371.2 761.3C1462.7 745.3 1554.3 724.7 1645.8 710.3C1737.3 696 1828.7 688 1874.3 684L1920 680L1920 1081L1874.3 1081C1828.7 1081 1737.3 1081 1645.8 1081C1554.3 1081 1462.7 1081 1371.2 1081C1279.7 1081 1188.3 1081 1097 1081C1005.7 1081 914.3 1081 823 1081C731.7 1081 640.3 1081 548.8 1081C457.3 1081 365.7 1081 274.2 1081C182.7 1081 91.3 1081 45.7 1081L0 1081Z" fill="#27374d"></path><path d="M0 724L45.7 740C91.3 756 182.7 788 274.2 802C365.7 816 457.3 812 548.8 801.7C640.3 791.3 731.7 774.7 823 781.3C914.3 788 1005.7 818 1097 825.2C1188.3 832.3 1279.7 816.7 1371.2 818.5C1462.7 820.3 1554.3 839.7 1645.8 847.5C1737.3 855.3 1828.7 851.7 1874.3 849.8L1920 848L1920 1081L1874.3 1081C1828.7 1081 1737.3 1081 1645.8 1081C1554.3 1081 1462.7 1081 1371.2 1081C1279.7 1081 1188.3 1081 1097 1081C1005.7 1081 914.3 1081 823 1081C731.7 1081 640.3 1081 548.8 1081C457.3 1081 365.7 1081 274.2 1081C182.7 1081 91.3 1081 45.7 1081L0 1081Z" fill="#35485e"></path><path d="M0 931L45.7 913.2C91.3 895.3 182.7 859.7 274.2 864.3C365.7 869 457.3 914 548.8 916.2C640.3 918.3 731.7 877.7 823 872.8C914.3 868 1005.7 899 1097 904.3C1188.3 909.7 1279.7 889.3 1371.2 874.3C1462.7 859.3 1554.3 849.7 1645.8 850.5C1737.3 851.3 1828.7 862.7 1874.3 868.3L1920 874L1920 1081L1874.3 1081C1828.7 1081 1737.3 1081 1645.8 1081C1554.3 1081 1462.7 1081 1371.2 1081C1279.7 1081 1188.3 1081 1097 1081C1005.7 1081 914.3 1081 823 1081C731.7 1081 640.3 1081 548.8 1081C457.3 1081 365.7 1081 274.2 1081C182.7 1081 91.3 1081 45.7 1081L0 1081Z" fill="#435a70"></path><path d="M0 1006L45.7 1001.3C91.3 996.7 182.7 987.3 274.2 981.7C365.7 976 457.3 974 548.8 972.2C640.3 970.3 731.7 968.7 823 975.5C914.3 982.3 1005.7 997.7 1097 997.2C1188.3 996.7 1279.7 980.3 1371.2 962.7C1462.7 945 1554.3 926 1645.8 918.8C1737.3 911.7 1828.7 916.3 1874.3 918.7L1920 921L1920 1081L1874.3 1081C1828.7 1081 1737.3 1081 1645.8 1081C1554.3 1081 1462.7 1081 1371.2 1081C1279.7 1081 1188.3 1081 1097 1081C1005.7 1081 914.3 1081 823 1081C731.7 1081 640.3 1081 548.8 1081C457.3 1081 365.7 1081 274.2 1081C182.7 1081 91.3 1081 45.7 1081L0 1081Z" fill="#526d82"></path></svg>