<svg id="visual" viewBox="0 0 1920 1080" width="1920" height="1080" xmlns="http://www.w3.org/2000/svg" xmlns:xlink="http://www.w3.org/1999/xlink" version="1.1"><path d="M0 589L29.2 612.2C58.3 635.3 116.7 681.7 174.8 702.2C233 722.7 291 717.3 349.2 709.2C407.3 701 465.7 690 523.8 673.5C582 657 640 635 698.2 639.8C756.3 644.7 814.7 676.3 872.8 691.8C931 707.3 989 706.7 1047.2 682.7C1105.3 658.7 1163.7 611.3 1221.8 588C1280 564.7 1338 565.3 1396.2 568.2C1454.3 571 1512.7 576 1570.8 584.8C1629 593.7 1687 606.3 1745.2 605.7C1803.3 605 1861.7 591 1890.8 584L1920 577L1920 1081L1890.8 1081C1861.7 1081 1803.3 1081 1745.2 1081C1687 1081 1629 1081 1570.8 1081C1512.7 1081 1454.3 1081 1396.2 1081C1338 1081 1280 1081 1221.8 1081C1163.7 1081 1105.3 1081 1047.2 1081C989 1081 931 1081 872.8 1081C814.7 1081 756.3 1081 698.2 1081C640 1081 582 1081 523.8 1081C465.7 1081 407.3 1081 349.2 1081C291 1081 233 1081 174.8 1081C116.7 1081 58.3 1081 29.2 1081L0 1081Z" fill="#003C43" stroke-linecap="round" stroke-linejoin="miter"></path></svg>