<svg id="visual" viewBox="0 0 1920 1080" width="1920" height="1080" 
xmlns="http://www.w3.org/2000/svg" xmlns:xlink="http://www.w3.org/1999/xlink" 
version="1.1"><path d="M0 598L26.7 586.7C53.3 575.3 106.7 552.7 160 574C213.3 
595.3 266.7 660.7 320 681C373.3 701.3 426.7 676.7 480 648.8C533.3 621 586.7 590 
640 570C693.3 550 746.7 541 800 542.7C853.3 544.3 906.7 556.7 960 592.5C1013.3 
628.3 1066.7 687.7 1120 702.8C1173.3 718 1226.7 689 1280 671.2C1333.3 653.3 1386.7 
646.7 1440 631.3C1493.3 616 1546.7 592 1600 607.3C1653.3 622.7 1706.7 677.3 1760 
674.8C1813.3 672.3 1866.7 612.7 1893.3 582.8L1920 553L1920 1081L1893.3 1081C1866.7 
1081 1813.3 1081 1760 1081C1706.7 1081 1653.3 1081 1600 1081C1546.7 1081 1493.3 
1081 1440 1081C1386.7 1081 1333.3 1081 1280 1081C1226.7 1081 1173.3 1081 1120 
1081C1066.7 1081 1013.3 1081 960 1081C906.7 1081 853.3 1081 800 1081C746.7 1081 
693.3 1081 640 1081C586.7 1081 533.3 1081 480 1081C426.7 1081 373.3 1081 320 1081C266.7 
1081 213.3 1081 160 1081C106.7 1081 53.3 1081 26.7 1081L0 1081Z" fill="#7B91A2" 
stroke-linecap="round" stroke-linejoin="miter"></path></svg>