<svg id="visual" viewBox="0 0 1920 1080" width="1920" height="1080" xmlns="http://www.w3.org/2000/svg" xmlns:xlink="http://www.w3.org/1999/xlink" version="1.1"><path d="M0 752L21.3 757C42.7 762 85.3 772 128 770.7C170.7 769.3 213.3 756.7 256 766.2C298.7 775.7 341.3 807.3 384 812.8C426.7 818.3 469.3 797.7 512 784C554.7 770.3 597.3 763.7 640 765.3C682.7 767 725.3 777 768 787.7C810.7 798.3 853.3 809.7 896 816.7C938.7 823.7 981.3 826.3 1024 835.8C1066.7 845.3 1109.3 861.7 1152 867.8C1194.7 874 1237.3 870 1280 847C1322.7 824 1365.3 782 1408 785.5C1450.7 789 1493.3 838 1536 845.7C1578.7 853.3 1621.3 819.7 1664 803.5C1706.7 787.3 1749.3 788.7 1792 781.7C1834.7 774.7 1877.3 759.3 1898.7 751.7L1920 744L1920 1081L1898.7 1081C1877.3 1081 1834.7 1081 1792 1081C1749.3 1081 1706.7 1081 1664 1081C1621.3 1081 1578.7 1081 1536 1081C1493.3 1081 1450.7 1081 1408 1081C1365.3 1081 1322.7 1081 1280 1081C1237.3 1081 1194.7 1081 1152 1081C1109.3 1081 1066.7 1081 1024 1081C981.3 1081 938.7 1081 896 1081C853.3 1081 810.7 1081 768 1081C725.3 1081 682.7 1081 640 1081C597.3 1081 554.7 1081 512 1081C469.3 1081 426.7 1081 384 1081C341.3 1081 298.7 1081 256 1081C213.3 1081 170.7 1081 128 1081C85.3 1081 42.7 1081 21.3 1081L0 1081Z" fill="#448790" stroke-linecap="round" stroke-linejoin="miter"></path></svg>