<svg id="visual" viewBox="0 0 1920 1080" width="1920" height="1080" 
xmlns="http://www.w3.org/2000/svg" xmlns:xlink="http://www.w3.org/1999/xlink" 
version="1.1"><path d="M0 413L22.8 439.5C45.7 466 91.3 519 137 523.3C182.7 527.7 
228.3 483.3 274 465C319.7 446.7 365.3 454.3 411.2 491.5C457 528.7 503 595.3 548.8 
598.5C594.7 601.7 640.3 541.3 686 497.8C731.7 454.3 777.3 427.7 823 442.7C868.7 457.7 
914.3 514.3 960 524.2C1005.7 534 1051.3 497 1097 492.3C1142.7 487.7 1188.3 515.3 1234 
555C1279.7 594.7 1325.3 646.3 1371.2 620.5C1417 594.7 1463 491.3 1508.8 442C1554.7 392.7 
1600.3 397.3 1646 399.8C1691.7 402.3 1737.3 402.7 1783 430.7C1828.7 458.7 1874.3 514.3 1897.2 
542.2L1920 570L1920 1081L1897.2 1081C1874.3 1081 1828.7 1081 1783 1081C1737.3 1081 1691.7 1081 
1646 1081C1600.3 1081 1554.7 1081 1508.8 1081C1463 1081 1417 1081 1371.2 1081C1325.3 1081 1279.7 
1081 1234 1081C1188.3 1081 1142.7 1081 1097 1081C1051.3 1081 1005.7 1081 960 1081C914.3 1081 
868.7 1081 823 1081C777.3 1081 731.7 1081 686 1081C640.3 1081 594.7 1081 548.8 1081C503 1081 
457 1081 411.2 1081C365.3 1081 319.7 1081 274 1081C228.3 1081 182.7 1081 137 1081C91.3 1081 45.7 
1081 22.8 1081L0 1081Z" fill="#cbeae2" 
stroke-linecap="round" stroke-linejoin="miter"></path></svg>