<svg id="visual" viewBox="0 0 1920 1080" width="1920" height="1080" 
xmlns="http://www.w3.org/2000/svg" xmlns:xlink="http://www.w3.org/1999/xlink" 
version="1.1"><path d="M0 731L21.3 745.5C42.7 760 85.3 789 128 794C170.7 799 
213.3 780 256 768.5C298.7 757 341.3 753 384 752.7C426.7 752.3 469.3 755.7 512 
774C554.7 792.3 597.3 825.7 640 836.2C682.7 846.7 725.3 834.3 768 830.3C810.7 
826.3 853.3 830.7 896 821.5C938.7 812.3 981.3 789.7 1024 777.5C1066.7 765.3 1109.3 
763.7 1152 769.2C1194.7 774.7 1237.3 787.3 1280 804.3C1322.7 821.3 1365.3 842.7 
1408 835.7C1450.7 828.7 1493.3 793.3 1536 787C1578.7 780.7 1621.3 803.3 1664 815.3C1706.7 
827.3 1749.3 828.7 1792 833C1834.7 837.3 1877.3 844.7 1898.7 848.3L1920 852L1920 1081L1898.7 
1081C1877.3 1081 1834.7 1081 1792 1081C1749.3 1081 1706.7 1081 1664 1081C1621.3 1081 1578.7 
1081 1536 1081C1493.3 1081 1450.7 1081 1408 1081C1365.3 1081 1322.7 1081 1280 1081C1237.3 1081 
1194.7 1081 1152 1081C1109.3 1081 1066.7 1081 1024 1081C981.3 1081 938.7 1081 896 1081C853.3 
1081 810.7 1081 768 1081C725.3 1081 682.7 1081 640 1081C597.3 1081 554.7 1081 512 1081C469.3 
1081 426.7 1081 384 1081C341.3 1081 298.7 1081 256 1081C213.3 1081 170.7 1081 128 1081C85.3 
1081 42.7 1081 21.3 1081L0 1081Z" fill="#135D66" 
stroke-linecap="round" stroke-linejoin="miter"></path></svg>