<svg id="visual" viewBox="0 0 1920 1080" width="1920" height="1080" 
xmlns="http://www.w3.org/2000/svg" xmlns:xlink="http://www.w3.org/1999/xlink" 
version="1.1"><path d="M0 748L35.5 756.2C71 764.3 142 780.7 213.2 790C284.3 799.3 355.7 
801.7 426.8 805.7C498 809.7 569 815.3 640 810.5C711 805.7 782 790.3 853.2 791.8C924.3 
793.3 995.7 811.7 1066.8 804.5C1138 797.3 1209 764.7 1280 773.5C1351 782.3 1422 832.7 
1493.2 843.8C1564.3 855 1635.7 827 1706.8 821.8C1778 816.7 1849 834.3 1884.5 843.2L1920 
852L1920 1081L1884.5 1081C1849 1081 1778 1081 1706.8 1081C1635.7 1081 1564.3 1081 1493.2 
1081C1422 1081 1351 1081 1280 1081C1209 1081 1138 1081 1066.8 1081C995.7 1081 924.3 1081 853.2 
1081C782 1081 711 1081 640 1081C569 1081 498 1081 426.8 1081C355.7 1081 284.3 1081 213.2 1081C142 
1081 71 1081 35.5 1081L0 1081Z" fill="#012f35" 
stroke-linecap="round" stroke-linejoin="miter"></path></svg>