<svg id="visual" viewBox="0 0 1920 1080" width="1920" height="1080" xmlns="http://www.w3.org/2000/svg" 
xmlns:xlink="http://www.w3.org/1999/xlink" version="1.1"><path d="M0 957L29.2 963.3C58.3 969.7 116.7 982.3 174.8 977.8C233 
973.3 291 951.7 349.2 940.3C407.3 929 465.7 928 523.8 941.8C582 955.7 640 984.3 698.2 984.7C756.3 985 814.7 957 872.8 956C931 
955 989 981 1047.2 989C1105.3 997 1163.7 987 1221.8 975.2C1280 963.3 1338 949.7 1396.2 949.2C1454.3 948.7 1512.7 961.3 1570.8 
961.3C1629 961.3 1687 948.7 1745.2 953.5C1803.3 958.3 1861.7 980.7 1890.8 991.8L1920 1003L1920 1081L1890.8 1081C1861.7 1081 1803.3 
1081 1745.2 1081C1687 1081 1629 1081 1570.8 1081C1512.7 1081 1454.3 1081 1396.2 1081C1338 1081 1280 1081 1221.8 1081C1163.7 1081 
1105.3 1081 1047.2 1081C989 1081 931 1081 872.8 1081C814.7 1081 756.3 1081 698.2 1081C640 1081 582 1081 523.8 1081C465.7 1081 407.3 
1081 349.2 1081C291 1081 233 1081 174.8 1081C116.7 1081 58.3 1081 29.2 1081L0 1081Z" fill="#3f5069" 
stroke-linecap="round" stroke-linejoin="miter"></path></svg>