<svg id="visual" viewBox="0 0 1920 1080" width="1920" height="1080" xmlns="http://www.w3.org/2000/svg" xmlns:xlink="http://www.w3.org/1999/xlink" version="1.1"><path d="M0 694L21.3 702.2C42.7 710.3 85.3 726.7 128 757.8C170.7 789 213.3 835 256 834.2C298.7 833.3 341.3 785.7 384 771.3C426.7 757 469.3 776 512 767.5C554.7 759 597.3 723 640 732.2C682.7 741.3 725.3 795.7 768 813.7C810.7 831.7 853.3 813.3 896 809C938.7 804.7 981.3 814.3 1024 798.5C1066.7 782.7 1109.3 741.3 1152 730.7C1194.7 720 1237.3 740 1280 746C1322.7 752 1365.3 744 1408 762.5C1450.7 781 1493.3 826 1536 826.3C1578.7 826.7 1621.3 782.3 1664 755.5C1706.7 728.7 1749.3 719.3 1792 701C1834.7 682.7 1877.3 655.3 1898.7 641.7L1920 628L1920 1081L1898.7 1081C1877.3 1081 1834.7 1081 1792 1081C1749.3 1081 1706.7 1081 1664 1081C1621.3 1081 1578.7 1081 1536 1081C1493.3 1081 1450.7 1081 1408 1081C1365.3 1081 1322.7 1081 1280 1081C1237.3 1081 1194.7 1081 1152 1081C1109.3 1081 1066.7 1081 1024 1081C981.3 1081 938.7 1081 896 1081C853.3 1081 810.7 1081 768 1081C725.3 1081 682.7 1081 640 1081C597.3 1081 554.7 1081 512 1081C469.3 1081 426.7 1081 384 1081C341.3 1081 298.7 1081 256 1081C213.3 1081 170.7 1081 128 1081C85.3 1081 42.7 1081 21.3 1081L0 1081Z" fill="#cbeae2" stroke-linecap="round" stroke-linejoin="miter"></path></svg>