<svg id="visual" viewBox="0 0 1920 1080" width="1920" height="1080" xmlns="http://www.w3.org/2000/svg" xmlns:xlink="http://www.w3.org/1999/xlink" version="1.1"><path d="M0 764L32 779.2C64 794.3 128 824.7 192 843.3C256 862 320 869 384 861.2C448 853.3 512 830.7 576 812C640 793.3 704 778.7 768 792.2C832 805.7 896 847.3 960 860.8C1024 874.3 1088 859.7 1152 836.3C1216 813 1280 781 1344 781.7C1408 782.3 1472 815.7 1536 813.2C1600 810.7 1664 772.3 1728 770.5C1792 768.7 1856 803.3 1888 820.7L1920 838L1920 1081L1888 1081C1856 1081 1792 1081 1728 1081C1664 1081 1600 1081 1536 1081C1472 1081 1408 1081 1344 1081C1280 1081 1216 1081 1152 1081C1088 1081 1024 1081 960 1081C896 1081 832 1081 768 1081C704 1081 640 1081 576 1081C512 1081 448 1081 384 1081C320 1081 256 1081 192 1081C128 1081 64 1081 32 1081L0 1081Z" fill="#acd3cd" stroke-linecap="round" stroke-linejoin="miter"></path></svg>