<svg id="visual" viewBox="0 0 1920 1080" width="1920" height="1080" xmlns="http://www.w3.org/2000/svg" 
xmlns:xlink="http://www.w3.org/1999/xlink" version="1.1"><path d="M0 393L45.7 382.8C91.3 372.7 182.7 352.3 
274.2 366.8C365.7 381.3 457.3 430.7 548.8 424.3C640.3 418 731.7 356 823 322.8C914.3 289.7 1005.7 285.3 1097 
297C1188.3 308.7 1279.7 336.3 1371.2 377C1462.7 417.7 1554.3 471.3 1645.8 496C1737.3 520.7 1828.7 516.3 1874.3 
514.2L1920 512L1920 0L1874.3 0C1828.7 0 1737.3 0 1645.8 0C1554.3 0 1462.7 0 1371.2 0C1279.7 0 1188.3 0 1097 
0C1005.7 0 914.3 0 823 0C731.7 0 640.3 0 548.8 0C457.3 0 365.7 0 274.2 0C182.7 0 91.3 0 45.7 0L0 0Z" fill="#27374D" 
stroke-linecap="round" stroke-linejoin="miter"></path></svg>