<svg id="visual" viewBox="0 0 1920 1080" width="1920" height="1080" xmlns="http://www.w3.org/2000/svg" 
xmlns:xlink="http://www.w3.org/1999/xlink" version="1.1"><path d="M0 858L80 853.5C160 849 320 840 480 
836C640 832 800 833 960 830.8C1120 828.7 1280 823.3 1440 809.8C1600 796.3 1760 774.7 1840 763.8L1920 
753L1920 1081L1840 1081C1760 1081 1600 1081 1440 1081C1280 1081 1120 1081 960 1081C800 1081 640 1081 480 
1081C320 1081 160 1081 80 1081L0 1081Z" fill="#27374D" 
stroke-linecap="round" stroke-linejoin="miter"></path></svg>