<svg id="visual" viewBox="0 0 1920 1080" width="1920" height="1080" 
xmlns="http://www.w3.org/2000/svg" xmlns:xlink="http://www.w3.org/1999/xlink" 
version="1.1"><path d="M0 659L26.7 662.3C53.3 665.7 106.7 672.3 160 670.5C213.3 
668.7 266.7 658.3 320 646.3C373.3 634.3 426.7 620.7 480 626.8C533.3 633 586.7 659 
640 658.7C693.3 658.3 746.7 631.7 800 652.5C853.3 673.3 906.7 741.7 960 761.5C1013.3 
781.3 1066.7 752.7 1120 736.2C1173.3 719.7 1226.7 715.3 1280 730.3C1333.3 745.3 1386.7 
779.7 1440 776.5C1493.3 773.3 1546.7 732.7 1600 727.2C1653.3 721.7 1706.7 751.3 1760 
749.5C1813.3 747.7 1866.7 714.3 1893.3 697.7L1920 681L1920 1081L1893.3 1081C1866.7 
1081 1813.3 1081 1760 1081C1706.7 1081 1653.3 1081 1600 1081C1546.7 1081 1493.3 1081 
1440 1081C1386.7 1081 1333.3 1081 1280 1081C1226.7 1081 1173.3 1081 1120 1081C1066.7 
1081 1013.3 1081 960 1081C906.7 1081 853.3 1081 800 1081C746.7 1081 693.3 1081 640 
1081C586.7 1081 533.3 1081 480 1081C426.7 1081 373.3 1081 320 1081C266.7 1081 213.3 
1081 160 1081C106.7 1081 53.3 1081 26.7 1081L0 1081Z" fill="#135D66" 
stroke-linecap="round" stroke-linejoin="miter"></path></svg>