<svg id="visual" viewBox="0 0 1920 1080" width="1920" height="1080" xmlns="http://www.w3.org/2000/svg" xmlns:xlink="http://www.w3.org/1999/xlink" version="1.1"><path d="M0 821L32 819.2C64 817.3 128 813.7 192 796.7C256 779.7 320 749.3 384 764.8C448 780.3 512 841.7 576 864.2C640 886.7 704 870.3 768 872.5C832 874.7 896 895.3 960 892.3C1024 889.3 1088 862.7 1152 866.2C1216 869.7 1280 903.3 1344 908.8C1408 914.3 1472 891.7 1536 849.5C1600 807.3 1664 745.7 1728 724.7C1792 703.7 1856 723.3 1888 733.2L1920 743L1920 1081L1888 1081C1856 1081 1792 1081 1728 1081C1664 1081 1600 1081 1536 1081C1472 1081 1408 1081 1344 1081C1280 1081 1216 1081 1152 1081C1088 1081 1024 1081 960 1081C896 1081 832 1081 768 1081C704 1081 640 1081 576 1081C512 1081 448 1081 384 1081C320 1081 256 1081 192 1081C128 1081 64 1081 32 1081L0 1081Z" fill="#135D66" stroke-linecap="round" stroke-linejoin="miter"></path></svg>