<svg id="visual" viewBox="0 0 1920 1080" width="1920" height="1080" 
xmlns="http://www.w3.org/2000/svg" xmlns:xlink="http://www.w3.org/1999/xlink" 
version="1.1"><path d="M0 700L21.3 695.3C42.7 690.7 85.3 681.3 128 690.5C170.7 
699.7 213.3 727.3 256 761.3C298.7 795.3 341.3 835.7 384 852.2C426.7 868.7 469.3 
861.3 512 841.3C554.7 821.3 597.3 788.7 640 780.3C682.7 772 725.3 788 768 775.7C810.7 
763.3 853.3 722.7 896 719.3C938.7 716 981.3 750 1024 771C1066.7 792 1109.3 800 1152 
786.7C1194.7 773.3 1237.3 738.7 1280 720.8C1322.7 703 1365.3 702 1408 697.8C1450.7 693.7 
1493.3 686.3 1536 699.2C1578.7 712 1621.3 745 1664 759.5C1706.7 774 1749.3 770 1792 
781.7C1834.7 793.3 1877.3 820.7 1898.7 834.3L1920 848L1920 1081L1898.7 1081C1877.3 1081 
1834.7 1081 1792 1081C1749.3 1081 1706.7 1081 1664 1081C1621.3 1081 1578.7 1081 1536 
1081C1493.3 1081 1450.7 1081 1408 1081C1365.3 1081 1322.7 1081 1280 1081C1237.3 1081 
1194.7 1081 1152 1081C1109.3 1081 1066.7 1081 1024 1081C981.3 1081 938.7 1081 896 1081C853.3 
1081 810.7 1081 768 1081C725.3 1081 682.7 1081 640 1081C597.3 1081 554.7 1081 512 1081C469.3 
1081 426.7 1081 384 1081C341.3 1081 298.7 1081 256 1081C213.3 1081 170.7 1081 128 1081C85.3 
1081 42.7 1081 21.3 1081L0 1081Z" fill="#77B0AA" 
stroke-linecap="round" stroke-linejoin="miter"></path></svg>