<svg id="visual" viewBox="0 0 1920 1080" width="1920" height="1080" xmlns="http://www.w3.org/2000/svg" 
xmlns:xlink="http://www.w3.org/1999/xlink" version="1.1"><path d="M0 809L53.3 809C106.7 809 213.3 809 
320 809C426.7 809 533.3 809 640 809C746.7 809 853.3 809 960 809C1066.7 809 1173.3 809 1280 809C1386.7 
809 1493.3 809 1600 809C1706.7 809 1813.3 809 1866.7 809L1920 809L1920 1081L1866.7 1081C1813.3 1081 1706.7 
1081 1600 1081C1493.3 1081 1386.7 1081 1280 1081C1173.3 1081 1066.7 1081 960 1081C853.3 1081 746.7 1081 640 
1081C533.3 1081 426.7 1081 320 1081C213.3 1081 106.7 1081 53.3 1081L0 1081Z" fill="#27374D" 
stroke-linecap="round" stroke-linejoin="miter"></path></svg>