<svg id="visual" viewBox="0 0 1920 1080" width="1920" height="1080" 
xmlns="http://www.w3.org/2000/svg" xmlns:xlink="http://www.w3.org/1999/xlink" 
version="1.1"><path d="M0 863L45.7 863C91.3 863 182.7 863 274.2 863C365.7 863 457.3 
863 548.8 863C640.3 863 731.7 863 823 863C914.3 863 1005.7 863 1097 863C1188.3 863 
1279.7 863 1371.2 863C1462.7 863 1554.3 863 1645.8 863C1737.3 863 1828.7 863 1874.3 
863L1920 863L1920 1081L1874.3 1081C1828.7 1081 1737.3 1081 1645.8 1081C1554.3 1081 1462.7 
1081 1371.2 1081C1279.7 1081 1188.3 1081 1097 1081C1005.7 1081 914.3 1081 823 1081C731.7 
1081 640.3 1081 548.8 1081C457.3 1081 365.7 1081 274.2 1081C182.7 1081 91.3 1081 45.7 1081L0 
1081Z" fill="#003C43" 
stroke-linecap="round" stroke-linejoin="miter"></path></svg>