<svg id="visual" viewBox="0 0 1920 1080" width="1920" height="1080" 
xmlns="http://www.w3.org/2000/svg" xmlns:xlink="http://www.w3.org/1999/xlink" 
version="1.1"><path d="M0 676L29.2 701.7C58.3 727.3 116.7 778.7 174.8 805.7C233 
832.7 291 835.3 349.2 823.5C407.3 811.7 465.7 785.3 523.8 774.8C582 764.3 640 769.7 
698.2 784C756.3 798.3 814.7 821.7 872.8 815.3C931 809 989 773 1047.2 772.3C1105.3 
771.7 1163.7 806.3 1221.8 811.8C1280 817.3 1338 793.7 1396.2 764.8C1454.3 736 1512.7 
702 1570.8 697.5C1629 693 1687 718 1745.2 724.3C1803.3 730.7 1861.7 718.3 1890.8 712.2L1920 
706L1920 1081L1890.8 1081C1861.7 1081 1803.3 1081 1745.2 1081C1687 1081 1629 1081 1570.8 
1081C1512.7 1081 1454.3 1081 1396.2 1081C1338 1081 1280 1081 1221.8 1081C1163.7 1081 1105.3 
1081 1047.2 1081C989 1081 931 1081 872.8 1081C814.7 1081 756.3 1081 698.2 1081C640 1081 582 
1081 523.8 1081C465.7 1081 407.3 1081 349.2 1081C291 1081 233 1081 174.8 1081C116.7 1081 58.3 
1081 29.2 1081L0 1081Z" fill="#003C43" 
stroke-linecap="round" stroke-linejoin="miter"></path></svg>