<svg id="visual" viewBox="0 0 1920 1080" width="1920" height="1080" xmlns="http://www.w3.org/2000/svg" xmlns:xlink="http://www.w3.org/1999/xlink" version="1.1"><path d="M0 712L32 739.7C64 767.3 128 822.7 192 828.7C256 834.7 320 791.3 384 788.3C448 785.3 512 822.7 576 818.5C640 814.3 704 768.7 768 767.2C832 765.7 896 808.3 960 808.5C1024 808.7 1088 766.3 1152 760.2C1216 754 1280 784 1344 791.2C1408 798.3 1472 782.7 1536 784.5C1600 786.3 1664 805.7 1728 824.8C1792 844 1856 863 1888 872.5L1920 882L1920 1081L1888 1081C1856 1081 1792 1081 1728 1081C1664 1081 1600 1081 1536 1081C1472 1081 1408 1081 1344 1081C1280 1081 1216 1081 1152 1081C1088 1081 1024 1081 960 1081C896 1081 832 1081 768 1081C704 1081 640 1081 576 1081C512 1081 448 1081 384 1081C320 1081 256 1081 192 1081C128 1081 64 1081 32 1081L0 1081Z" fill="#77B0AA" stroke-linecap="round" stroke-linejoin="miter"></path></svg>