<svg id="visual" viewBox="0 0 1920 1080" width="1920" height="1080" xmlns="http://www.w3.org/2000/svg" xmlns:xlink="http://www.w3.org/1999/xlink" version="1.1"><path d="M0 714L22.8 710.5C45.7 707 91.3 700 137 711.2C182.7 722.3 228.3 751.7 274 749C319.7 746.3 365.3 711.7 411.2 697.8C457 684 503 691 548.8 705.3C594.7 719.7 640.3 741.3 686 744.5C731.7 747.7 777.3 732.3 823 732C868.7 731.7 914.3 746.3 960 752.5C1005.7 758.7 1051.3 756.3 1097 742.2C1142.7 728 1188.3 702 1234 688.8C1279.7 675.7 1325.3 675.3 1371.2 688C1417 700.7 1463 726.3 1508.8 729.2C1554.7 732 1600.3 712 1646 714.7C1691.7 717.3 1737.3 742.7 1783 744.8C1828.7 747 1874.3 726 1897.2 715.5L1920 705L1920 1081L1897.2 1081C1874.3 1081 1828.7 1081 1783 1081C1737.3 1081 1691.7 1081 1646 1081C1600.3 1081 1554.7 1081 1508.8 1081C1463 1081 1417 1081 1371.2 1081C1325.3 1081 1279.7 1081 1234 1081C1188.3 1081 1142.7 1081 1097 1081C1051.3 1081 1005.7 1081 960 1081C914.3 1081 868.7 1081 823 1081C777.3 1081 731.7 1081 686 1081C640.3 1081 594.7 1081 548.8 1081C503 1081 457 1081 411.2 1081C365.3 1081 319.7 1081 274 1081C228.3 1081 182.7 1081 137 1081C91.3 1081 45.7 1081 22.8 1081L0 1081Z" fill="#e3fef7"></path><path d="M0 784L22.8 781.5C45.7 779 91.3 774 137 781.7C182.7 789.3 228.3 809.7 274 820C319.7 830.3 365.3 830.7 411.2 832C457 833.3 503 835.7 548.8 838.7C594.7 841.7 640.3 845.3 686 835.5C731.7 825.7 777.3 802.3 823 798.3C868.7 794.3 914.3 809.7 960 811.2C1005.7 812.7 1051.3 800.3 1097 801.8C1142.7 803.3 1188.3 818.7 1234 821.8C1279.7 825 1325.3 816 1371.2 809.3C1417 802.7 1463 798.3 1508.8 802C1554.7 805.7 1600.3 817.3 1646 808.7C1691.7 800 1737.3 771 1783 773.7C1828.7 776.3 1874.3 810.7 1897.2 827.8L1920 845L1920 1081L1897.2 1081C1874.3 1081 1828.7 1081 1783 1081C1737.3 1081 1691.7 1081 1646 1081C1600.3 1081 1554.7 1081 1508.8 1081C1463 1081 1417 1081 1371.2 1081C1325.3 1081 1279.7 1081 1234 1081C1188.3 1081 1142.7 1081 1097 1081C1051.3 1081 1005.7 1081 960 1081C914.3 1081 868.7 1081 823 1081C777.3 1081 731.7 1081 686 1081C640.3 1081 594.7 1081 548.8 1081C503 1081 457 1081 411.2 1081C365.3 1081 319.7 1081 274 1081C228.3 1081 182.7 1081 137 1081C91.3 1081 45.7 1081 22.8 1081L0 1081Z" fill="#a9cac5"></path><path d="M0 863L22.8 862.3C45.7 861.7 91.3 860.3 137 855.7C182.7 851 228.3 843 274 844.2C319.7 845.3 365.3 855.7 411.2 856C457 856.3 503 846.7 548.8 843.8C594.7 841 640.3 845 686 843.2C731.7 841.3 777.3 833.7 823 830C868.7 826.3 914.3 826.7 960 837.5C1005.7 848.3 1051.3 869.7 1097 876.7C1142.7 883.7 1188.3 876.3 1234 873C1279.7 869.7 1325.3 870.3 1371.2 875C1417 879.7 1463 888.3 1508.8 886.7C1554.7 885 1600.3 873 1646 857.3C1691.7 841.7 1737.3 822.3 1783 816.5C1828.7 810.7 1874.3 818.3 1897.2 822.2L1920 826L1920 1081L1897.2 1081C1874.3 1081 1828.7 1081 1783 1081C1737.3 1081 1691.7 1081 1646 1081C1600.3 1081 1554.7 1081 1508.8 1081C1463 1081 1417 1081 1371.2 1081C1325.3 1081 1279.7 1081 1234 1081C1188.3 1081 1142.7 1081 1097 1081C1051.3 1081 1005.7 1081 960 1081C914.3 1081 868.7 1081 823 1081C777.3 1081 731.7 1081 686 1081C640.3 1081 594.7 1081 548.8 1081C503 1081 457 1081 411.2 1081C365.3 1081 319.7 1081 274 1081C228.3 1081 182.7 1081 137 1081C91.3 1081 45.7 1081 22.8 1081L0 1081Z" fill="#729896"></path><path d="M0 951L22.8 942.8C45.7 934.7 91.3 918.3 137 907.7C182.7 897 228.3 892 274 895.8C319.7 899.7 365.3 912.3 411.2 924.8C457 937.3 503 949.7 548.8 953.8C594.7 958 640.3 954 686 949C731.7 944 777.3 938 823 928C868.7 918 914.3 904 960 896.3C1005.7 888.7 1051.3 887.3 1097 885.3C1142.7 883.3 1188.3 880.7 1234 885.2C1279.7 889.7 1325.3 901.3 1371.2 907.8C1417 914.3 1463 915.7 1508.8 916.5C1554.7 917.3 1600.3 917.7 1646 923.2C1691.7 928.7 1737.3 939.3 1783 946.3C1828.7 953.3 1874.3 956.7 1897.2 958.3L1920 960L1920 1081L1897.2 1081C1874.3 1081 1828.7 1081 1783 1081C1737.3 1081 1691.7 1081 1646 1081C1600.3 1081 1554.7 1081 1508.8 1081C1463 1081 1417 1081 1371.2 1081C1325.3 1081 1279.7 1081 1234 1081C1188.3 1081 1142.7 1081 1097 1081C1051.3 1081 1005.7 1081 960 1081C914.3 1081 868.7 1081 823 1081C777.3 1081 731.7 1081 686 1081C640.3 1081 594.7 1081 548.8 1081C503 1081 457 1081 411.2 1081C365.3 1081 319.7 1081 274 1081C228.3 1081 182.7 1081 137 1081C91.3 1081 45.7 1081 22.8 1081L0 1081Z" fill="#3d686b"></path><path d="M0 1008L22.8 1002.8C45.7 997.7 91.3 987.3 137 983.5C182.7 979.7 228.3 982.3 274 980C319.7 977.7 365.3 970.3 411.2 965.7C457 961 503 959 548.8 961.5C594.7 964 640.3 971 686 981.3C731.7 991.7 777.3 1005.3 823 1005.5C868.7 1005.7 914.3 992.3 960 992.8C1005.7 993.3 1051.3 1007.7 1097 1010.5C1142.7 1013.3 1188.3 1004.7 1234 1004.5C1279.7 1004.3 1325.3 1012.7 1371.2 1013C1417 1013.3 1463 1005.7 1508.8 1005.7C1554.7 1005.7 1600.3 1013.3 1646 1010.5C1691.7 1007.7 1737.3 994.3 1783 983.7C1828.7 973 1874.3 965 1897.2 961L1920 957L1920 1081L1897.2 1081C1874.3 1081 1828.7 1081 1783 1081C1737.3 1081 1691.7 1081 1646 1081C1600.3 1081 1554.7 1081 1508.8 1081C1463 1081 1417 1081 1371.2 1081C1325.3 1081 1279.7 1081 1234 1081C1188.3 1081 1142.7 1081 1097 1081C1051.3 1081 1005.7 1081 960 1081C914.3 1081 868.7 1081 823 1081C777.3 1081 731.7 1081 686 1081C640.3 1081 594.7 1081 548.8 1081C503 1081 457 1081 411.2 1081C365.3 1081 319.7 1081 274 1081C228.3 1081 182.7 1081 137 1081C91.3 1081 45.7 1081 22.8 1081L0 1081Z" fill="#003c43"></path></svg>