<svg id="visual" viewBox="0 0 960 540" width="960" height="540" xmlns="http://www.w3.org/2000/svg" xmlns:xlink="http://www.w3.org/1999/xlink" version="1.1"><path d="M0 390L13.3 392.5C26.7 395 53.3 400 80 402.8C106.7 405.7 133.3 406.3 160 413.3C186.7 420.3 213.3 433.7 240 436.7C266.7 439.7 293.3 432.3 320 428.3C346.7 424.3 373.3 423.7 400 429.5C426.7 435.3 453.3 447.7 480 454.5C506.7 461.3 533.3 462.7 560 458.8C586.7 455 613.3 446 640 445.5C666.7 445 693.3 453 720 453.8C746.7 454.7 773.3 448.3 800 449.8C826.7 451.3 853.3 460.7 880 458C906.7 455.3 933.3 440.7 946.7 433.3L960 426L960 541L946.7 541C933.3 541 906.7 541 880 541C853.3 541 826.7 541 800 541C773.3 541 746.7 541 720 541C693.3 541 666.7 541 640 541C613.3 541 586.7 541 560 541C533.3 541 506.7 541 480 541C453.3 541 426.7 541 400 541C373.3 541 346.7 541 320 541C293.3 541 266.7 541 240 541C213.3 541 186.7 541 160 541C133.3 541 106.7 541 80 541C53.3 541 26.7 541 13.3 541L0 541Z" fill="#003C43" stroke-linecap="round" stroke-linejoin="miter"></path></svg>