<svg id="visual" viewBox="0 0 1920 540" width="1920" height="540" xmlns="http://www.w3.org/2000/svg" xmlns:xlink="http://www.w3.org/1999/xlink" version="1.1"><path d="M0 295L32 288.2C64 281.3 128 267.7 192 269.3C256 271 320 288 384 298.3C448 308.7 512 312.3 576 301.5C640 290.7 704 265.3 768 264C832 262.7 896 285.3 960 297.8C1024 310.3 1088 312.7 1152 312.5C1216 312.3 1280 309.7 1344 294.8C1408 280 1472 253 1536 250.2C1600 247.3 1664 268.7 1728 273C1792 277.3 1856 264.7 1888 258.3L1920 252L1920 541L1888 541C1856 541 1792 541 1728 541C1664 541 1600 541 1536 541C1472 541 1408 541 1344 541C1280 541 1216 541 1152 541C1088 541 1024 541 960 541C896 541 832 541 768 541C704 541 640 541 576 541C512 541 448 541 384 541C320 541 256 541 192 541C128 541 64 541 32 541L0 541Z" fill="#41546e" stroke-linecap="round" stroke-linejoin="miter"></path></svg>