<svg id="visual" viewBox="0 0 1920 1080" width="1920" height="1080" 
xmlns="http://www.w3.org/2000/svg" xmlns:xlink="http://www.w3.org/1999/xlink" 
version="1.1"><path d="M0 581L26.7 603.5C53.3 626 106.7 671 160 654.8C213.3 638.7 
266.7 561.3 320 524C373.3 486.7 426.7 489.3 480 499.3C533.3 509.3 586.7 526.7 640 
528.5C693.3 530.3 746.7 516.7 800 546.5C853.3 576.3 906.7 649.7 960 653.3C1013.3 657 
1066.7 591 1120 576.3C1173.3 561.7 1226.7 598.3 1280 607.5C1333.3 616.7 1386.7 598.3 
1440 568.8C1493.3 539.3 1546.7 498.7 1600 503.8C1653.3 509 1706.7 560 1760 603.7C1813.3 
647.3 1866.7 683.7 1893.3 701.8L1920 720L1920 1081L1893.3 1081C1866.7 1081 1813.3 1081 
1760 1081C1706.7 1081 1653.3 1081 1600 1081C1546.7 1081 1493.3 1081 1440 1081C1386.7 1081 
1333.3 1081 1280 1081C1226.7 1081 1173.3 1081 1120 1081C1066.7 1081 1013.3 1081 960 1081C906.7 
1081 853.3 1081 800 1081C746.7 1081 693.3 1081 640 1081C586.7 1081 533.3 1081 480 1081C426.7 
1081 373.3 1081 320 1081C266.7 1081 213.3 1081 160 1081C106.7 1081 53.3 1081 26.7 1081L0 
1081Z" fill="#77B0AA" 
stroke-linecap="round" stroke-linejoin="miter"></path></svg>