<svg id="visual" viewBox="0 0 1920 1080" width="1920" height="1080" xmlns="http://www.w3.org/2000/svg" xmlns:xlink="http://www.w3.org/1999/xlink" version="1.1"><path d="M0 724L32 735.2C64 746.3 128 768.7 192 770.5C256 772.3 320 753.7 384 776.5C448 799.3 512 863.7 576 875.5C640 887.3 704 846.7 768 841.8C832 837 896 868 960 850C1024 832 1088 765 1152 751.5C1216 738 1280 778 1344 805.2C1408 832.3 1472 846.7 1536 861C1600 875.3 1664 889.7 1728 870.8C1792 852 1856 800 1888 774L1920 748L1920 1081L1888 1081C1856 1081 1792 1081 1728 1081C1664 1081 1600 1081 1536 1081C1472 1081 1408 1081 1344 1081C1280 1081 1216 1081 1152 1081C1088 1081 1024 1081 960 1081C896 1081 832 1081 768 1081C704 1081 640 1081 576 1081C512 1081 448 1081 384 1081C320 1081 256 1081 192 1081C128 1081 64 1081 32 1081L0 1081Z" fill="#003C43" stroke-linecap="round" stroke-linejoin="miter"></path></svg>