<svg id="visual" viewBox="0 0 1920 1080" width="1920" height="1080" xmlns="http://www.w3.org/2000/svg" xmlns:xlink="http://www.w3.org/1999/xlink" version="1.1"><path d="M0 778L32 790.8C64 803.7 128 829.3 192 830.2C256 831 320 807 384 808.3C448 809.7 512 836.3 576 834.2C640 832 704 801 768 800.2C832 799.3 896 828.7 960 822.7C1024 816.7 1088 775.3 1152 764C1216 752.7 1280 771.3 1344 793.5C1408 815.7 1472 841.3 1536 854.3C1600 867.3 1664 867.7 1728 845C1792 822.3 1856 776.7 1888 753.8L1920 731L1920 1081L1888 1081C1856 1081 1792 1081 1728 1081C1664 1081 1600 1081 1536 1081C1472 1081 1408 1081 1344 1081C1280 1081 1216 1081 1152 1081C1088 1081 1024 1081 960 1081C896 1081 832 1081 768 1081C704 1081 640 1081 576 1081C512 1081 448 1081 384 1081C320 1081 256 1081 192 1081C128 1081 64 1081 32 1081L0 1081Z" fill="#47828a" stroke-linecap="round" stroke-linejoin="miter"></path></svg>