<!-- original fill is #212121 -->
<svg fill="none" height="32" viewBox="0 0 32 32" width="32" xmlns="http://www.w3.org/2000/svg"><g fill="#374151"><path d="m22.2304 2.43035c-3.4786-2.006843-7.927-.81413-9.9341 2.66434l-1.3203 2.28052c-1.78526 3.09439-1.03862 6.95629 1.5967 9.18439l-6.40711 11.0904c-.33.59-.13002 1.33.44998 1.67.58.33 1.33001.13 1.67001-.45l6.39272-11.0655c3.2819 1.2587 7.0846-.019 8.8969-3.1597l1.3195-2.279.0014-.0026c1.9952-3.47759.8034-7.92499-2.6648-9.93233zm-1.0708 1.12703-1.031 1.75717-2.1943-1.26722.6407-1.091c.8733-.00399 1.7576.19024 2.5846.60105zm-3.4032-.53902-.4063.69165-.7117-.41101c.3623-.13031.7369-.22439 1.118-.28064zm-1.8809.61894 1.133.65434-1.2482 2.12525-1.8458-1.06635c.5275-.73246 1.203-1.30939 1.961-1.71324zm-2.3238 2.28262 1.867 1.0786-1.2524 2.13254-1.8545-1.06951zm-1.5501 2.74131 1.8231 1.05146-1.2502 2.12871-1.0682-.6164c-.0329-.8608.1262-1.73744.4953-2.56377zm-.4029 3.39577.6342.366-.3618.6159c-.1194-.3186-.2105-.6473-.2724-.9819zm.6152 1.7302.6032-1.0271 2.1986 1.2687-1.0175 1.7341c-.7622-.5243-1.3632-1.2062-1.7843-1.9757zm2.3612 2.3254 1.0248-1.7467 2.1985 1.2686-.6743 1.1474c-.8653-.0219-1.7371-.2391-2.549-.6693zm3.3523.6336.4552-.7746.8274.4775c-.4144.1472-.8449.247-1.2826.2971zm2.0493-.6334-1.2524-.7227 1.2516-2.1298 1.974 1.1385c-.5309.7341-1.2107 1.3114-1.9732 1.714zm2.337-2.2828-1.996-1.1512 1.2504-2.1278 1.9813 1.1447zm1.5464-2.7338-1.9503-1.12669 1.2493-2.12595 1.1999.69295c.0306.8599-.1298 1.73509-.4989 2.55969zm.4094-3.39032-.7686-.44386.427-.72668c.1545.37717.2689.76971.3416 1.17054zm-.6986-1.89436-.6542 1.11318-2.204-1.27283 1.0324-1.75966c.7718.50344 1.3866 1.16598 1.8258 1.91931zm-4.1793 7.11178-1.2515 2.1297-2.1989-1.2689 1.2498-2.13zm-2.7849-1.6061-1.2497 2.1298-2.1983-1.2685 1.2503-2.1288zm-1.8561-1.84915 1.2522-2.13212 2.1956 1.2684-1.2504 2.13107zm2.7817 1.60435 1.2501-2.13065 2.2016 1.27185-1.2506 2.1282zm5.0427-3.56616-1.2493 2.12585-2.2019-1.27211 1.2476-2.12634zm-2.7878-1.60992-1.2475 2.12624-2.1953-1.26825 1.2483-2.12535z"/><path d="m21.5056 23.94c.31-.55-.01-1.25-.63-1.37l-2.9956-.6-.0063.0034.0019-.0034-.51-.28c-.83-.46-1.88-.17-2.34.66-.46.82-.17 1.87.66 2.33l.51.28.0027-.0049.0017.0049 2.0656 2.26c.43.47 1.19.38 1.5-.17.2304-.4148.1125-.9315-.2676-1.2135.4079.2104.9099.0595 1.1376-.3365.23-.41.08-.92-.32-1.15l-.1132-.0635.0332.0135c.45.25 1.02.09 1.27-.36z"/></g></svg>