<svg enable-background="new 0 0 512 512" viewBox="0 0 512 512" xmlns="http://www.w3.org/2000/svg"><path d="m250.951 125.662c27.423-29.128 49.085-36.773 69.001-37.803 33.145-1.721 42.21 16.069 40.628 40.458-1.574 24.388-25.435 56.835-25.435 56.835" fill="#5a7b90"/><path d="m483.154 195.21c-3.928-4.91-10.007-6.493-15.291-3.887l-36.44 17.968-10.549 5.201c-20.868 10.243-21.731-3.14-33.041-20.648-28.643-51.762-86.661-82.335-163.073-92.161-153.714-19.77-193.539 72.215-193.539 161.287 0 89.071 86.653 161.287 193.54 161.287 77.011 0 131.339-37.487 162.504-91.75 10.64-16.094 12.174-29.023 27.716-23.966l14.47 7.134 38.413 18.942c5.283 2.606 11.362 1.023 15.291-3.887 14.161-17.694 22.845-41.529 22.845-67.76s-8.684-50.067-22.846-67.76z" fill="#19b8c4"/><path d="m111.61 194.26c9.609 0 17.417 7.791 17.417 17.433v21.402c0 9.625-7.808 17.433-17.417 17.433-9.626 0-17.433-7.808-17.433-17.433v-21.402c0-9.641 7.808-17.433 17.433-17.433" fill="#2c3c47"/><path d="m31.475 272.981c4.074 84.413 60.552 151.272 193.287 151.272 142.799 0 177.827-122.087 190.22-115.716 0 0 1.875-1.721-6.874-1.079-46.585 3.424-213.463 12.757-376.633-34.477" fill="#79cdd5"/><path d="m145.466 318.623c-5.471-7.539-6.566-18.212-2.776-27.066l3.197-7.466c3.79-8.863 11.72-14.171 20.119-13.473l28.211 2.346c10.681.885 19.129 11.143 19.413 23.755.219 9.739-1.542 19.681-5.527 28.998-3.985 9.309-9.723 16.889-16.499 22.473-8.774 7.232-20.801 5.34-27.765-4.253zm269.513-10.087 14.47 7.134 38.413 18.942c5.283 2.606 11.361 1.023 15.29-3.888 14.162-17.684 22.847-41.521 22.847-67.759 0-26.23-8.685-50.067-22.847-67.751-3.928-4.91-10.006-6.493-15.29-3.888l-36.432 17.968-16.963 8.359" fill="#5a7b90"/><path d="m25.412 233.927v.003c-10.729.001-19.412 8.692-19.412 19.413 0 6.613 3.31 12.446 8.36 15.951-5.05 3.506-8.36 9.338-8.36 15.951 0 10.721 8.683 19.413 19.412 19.413v.007c19.535 0 35.368-15.842 35.368-35.369 0-19.534-15.833-35.369-35.368-35.369z" fill="#f16e82"/><path d="m27.05 274.668c-5.847 0-11.274-1.546-14.352-3.729-1.284-.911-1.587-2.692-.675-3.977.91-1.285 2.69-1.588 3.977-.676 4.197 2.977 15.399 4.335 22.719-.408 1.322-.857 3.088-.479 3.946.843.857 1.322.479 3.088-.843 3.945-4.417 2.86-9.75 4.002-14.772 4.002z" fill="#ef4b44"/></svg>